<svg width="1672" height="1604" viewBox="0 0 1672 1604" fill="none" xmlns="http://www.w3.org/2000/svg">
<rect width="1672" height="1604" fill="#118EEA"/>
<path d="M488.926 1188.19V1321H452.402V1256.55L425.645 1286.82H414.707L387.949 1256.55V1321H351.426V1188.19H364.316L420.176 1244.83L476.035 1188.19H488.926ZM622.285 1187.21C631.139 1187.21 639.603 1188.77 647.676 1191.9C655.879 1194.89 663.171 1199.32 669.551 1205.18C675.931 1211.04 680.944 1218.2 684.59 1226.66C688.366 1235.13 690.254 1244.76 690.254 1255.57C690.254 1266.38 688.366 1276.01 684.59 1284.48C680.944 1292.94 675.931 1300.1 669.551 1305.96C663.171 1311.82 655.879 1316.31 647.676 1319.44C639.603 1322.43 631.139 1323.93 622.285 1323.93C613.431 1323.93 604.902 1322.43 596.699 1319.44C588.626 1316.31 581.4 1311.82 575.02 1305.96C568.639 1300.1 563.561 1292.94 559.785 1284.48C556.139 1276.01 554.316 1266.38 554.316 1255.57C554.316 1244.76 556.139 1235.13 559.785 1226.66C563.561 1218.2 568.639 1211.04 575.02 1205.18C581.4 1199.32 588.626 1194.89 596.699 1191.9C604.902 1188.77 613.431 1187.21 622.285 1187.21ZM622.285 1221.39C616.426 1221.39 611.217 1222.89 606.66 1225.88C602.103 1228.88 598.457 1232.98 595.723 1238.19C593.118 1243.27 591.816 1249.06 591.816 1255.57C591.816 1262.08 593.118 1267.94 595.723 1273.15C598.457 1278.23 602.103 1282.26 606.66 1285.26C611.217 1288.25 616.426 1289.75 622.285 1289.75C628.145 1289.75 633.353 1288.25 637.91 1285.26C642.598 1282.26 646.243 1278.23 648.848 1273.15C651.452 1267.94 652.754 1262.08 652.754 1255.57C652.754 1249.06 651.452 1243.27 648.848 1238.19C646.243 1232.98 642.598 1228.88 637.91 1225.88C633.353 1222.89 628.145 1221.39 622.285 1221.39ZM875.176 1190.14V1322.95H862.285L792.168 1256.74V1321H755.645V1188.19H768.535L838.652 1255.57V1190.14H875.176ZM1038.81 1241.12V1268.46H986.855V1289.75H1045.64V1321H950.332V1190.14H1045.64V1220.41H986.855V1241.12H1038.81ZM1219.63 1190.14V1222.37H1181.15V1320.41H1144.63V1222.37H1106.15V1190.14H1219.63ZM1333.65 1188.19L1394.2 1321H1351.62L1345.18 1303.42H1303.77L1297.32 1321H1254.75L1315.29 1188.19H1333.65ZM1324.47 1247.17L1314.51 1274.12H1334.43L1324.47 1247.17Z" fill="white"/>
<circle cx="850.5" cy="636.5" r="467.5" fill="white"/>
<path d="M1137.56 739.241L1137.88 738.99L1138.2 738.752L1206.88 688.764L1218.65 704.935L1206.88 688.764C1209.47 686.883 1211 683.877 1211 680.679V522C1211 516.477 1206.52 512 1201 512H855.688H507C501.477 512 497 516.477 497 522V785.943C497 791.466 501.477 795.943 507 795.943H1062.45C1064.7 795.943 1066.89 795.183 1068.66 793.784L1137.56 739.241Z" fill="#118EEA" stroke="#118EEA" stroke-width="40"/>
<path d="M713 618L641 618L569 618" stroke="white" stroke-width="20" stroke-linecap="round"/>
<path d="M713 680L641 680L569 680" stroke="white" stroke-width="20" stroke-linecap="round"/>
<path d="M1131 618L1059 618L987 618" stroke="white" stroke-width="20" stroke-linecap="round"/>
<path d="M1033 680L1010 680L987 680" stroke="white" stroke-width="20" stroke-linecap="round"/>
<path d="M893.187 602.094C869.103 594.208 816.253 586.796 812.458 617.902C805.401 675.74 911.532 638.636 898.194 691.671C890.684 721.53 828.103 713.919 808.703 703.966" stroke="white" stroke-width="30" stroke-linecap="round" stroke-linejoin="round"/>
<path d="M854.003 565.8V595.2M854.003 712.8V742.2" stroke="white" stroke-width="20" stroke-linecap="round" stroke-linejoin="round"/>
<path d="M1292.45 704.707L1086.72 867.317C1082.79 870.426 1077 867.624 1077 862.61V700C1077 696.686 1079.69 694 1083 694H1288.73C1294.42 694 1296.92 701.179 1292.45 704.707Z" stroke="white" stroke-width="20"/>
</svg>
